<svg xmlns="http://www.w3.org/2000/svg" width="527" height="474" style="shape-rendering:geometricPrecision;text-rendering:geometricPrecision;image-rendering:optimizeQuality;fill-rule:evenodd;clip-rule:evenodd"><path d="M144.5 3.5c84.014-.45776 168.014.04224 252 1.5 46.772 6.9497 82.939 30.1164 108.5 69.5 8.887 15.8782 14.22 32.878 16 51 1.358 74.994 1.358 149.994 0 225-6.652 45.291-29.819 79.124-69.5 101.5-20.586 10.983-42.586 17.316-66 19-80.667.667-161.333.667-242 0-48.1211-2.433-86.9544-22.267-116.5-59.5-12.7682-17.631-20.43489-37.298-23-59-.66667-77.333-.66667-154.667 0-232C14.8018 66.3614 46.3018 30.1947 98.5 12c15.126-4.68543 30.46-7.51876 46-8.5Z" style="opacity:.983"/><path fill="#ac3c76" d="M343.5 318.5c-12.466-6.15-24.799-12.483-37-19-1.533-1.745-3.533-2.745-6-3-12.955-6.977-25.955-13.643-39-20 27.522-13.285 54.856-26.952 82-41-27.228-14.281-54.561-27.947-82-41-26.354-14.177-53.021-27.844-80-41 .832-27.497 1.332-55.1636 1.5-83 80.285 40.788 160.451 81.788 240.5 123 1.333 28 1.333 56 0 84-27.103 13.216-53.77 26.883-80 41Z" style="opacity:1"/><path fill="#f9ac16" d="M181.5 153.5c26.979 13.156 53.646 26.823 80 41-26.557 13.224-52.891 26.891-79 41 26.158 13.913 52.492 27.58 79 41 13.045 6.357 26.045 13.023 39 20 1.533 1.745 3.533 2.745 6 3 12.201 6.517 24.534 12.85 37 19v1c.331 27.172-.002 54.172-1 81-80.214-40.107-160.214-80.774-240-122-1.167-28.327-1.333-56.661-.5-85 26.145-13.989 52.645-27.322 79.5-40Z" style="opacity:1"/><path fill="#030100" d="M261.5 194.5c27.439 13.053 54.772 26.719 82 41-27.144 14.048-54.478 27.715-82 41-26.508-13.42-52.842-27.087-79-41 26.109-14.109 52.443-27.776 79-41Z" style="opacity:1"/><path fill="#a55f34" d="M300.5 296.5c2.467.255 4.467 1.255 6 3-2.467-.255-4.467-1.255-6-3Z" style="opacity:1"/><path fill="#453006" d="M343.5 319.5c1.329 27.17 1.329 54.503 0 82-.607-.124-.94-.457-1-1 .998-26.828 1.331-53.828 1-81Z" style="opacity:1"/></svg>