<?xml version="1.0" encoding="UTF-8"?>
<!DOCTYPE svg PUBLIC "-//W3C//DTD SVG 1.1//EN" "http://www.w3.org/Graphics/SVG/1.1/DTD/svg11.dtd">
<svg xmlns="http://www.w3.org/2000/svg" version="1.1" width="527px" height="474px" style="shape-rendering:geometricPrecision; text-rendering:geometricPrecision; image-rendering:optimizeQuality; fill-rule:evenodd; clip-rule:evenodd" xmlns:xlink="http://www.w3.org/1999/xlink">
<g><path style="opacity:0.983" fill="#000000" d="M 144.5,3.5 C 228.514,3.04224 312.514,3.54224 396.5,5C 443.272,11.9497 479.439,35.1164 505,74.5C 513.887,90.3782 519.22,107.378 521,125.5C 522.358,200.494 522.358,275.494 521,350.5C 514.348,395.791 491.181,429.624 451.5,452C 430.914,462.983 408.914,469.316 385.5,471C 304.833,471.667 224.167,471.667 143.5,471C 95.3789,468.567 56.5456,448.733 27,411.5C 14.2318,393.869 6.56511,374.202 4,352.5C 3.33333,275.167 3.33333,197.833 4,120.5C 14.8018,66.3614 46.3018,30.1947 98.5,12C 113.626,7.31457 128.96,4.48124 144.5,3.5 Z"/></g>
<g><path style="opacity:1" fill="#ac3c76" d="M 343.5,318.5 C 331.034,312.35 318.701,306.017 306.5,299.5C 304.967,297.755 302.967,296.755 300.5,296.5C 287.545,289.523 274.545,282.857 261.5,276.5C 289.022,263.215 316.356,249.548 343.5,235.5C 316.272,221.219 288.939,207.553 261.5,194.5C 235.146,180.323 208.479,166.656 181.5,153.5C 182.332,126.003 182.832,98.3364 183,70.5C 263.285,111.288 343.451,152.288 423.5,193.5C 424.833,221.5 424.833,249.5 423.5,277.5C 396.397,290.716 369.73,304.383 343.5,318.5 Z"/></g>
<g><path style="opacity:1" fill="#f9ac16" d="M 181.5,153.5 C 208.479,166.656 235.146,180.323 261.5,194.5C 234.943,207.724 208.609,221.391 182.5,235.5C 208.658,249.413 234.992,263.08 261.5,276.5C 274.545,282.857 287.545,289.523 300.5,296.5C 302.033,298.245 304.033,299.245 306.5,299.5C 318.701,306.017 331.034,312.35 343.5,318.5C 343.5,318.833 343.5,319.167 343.5,319.5C 343.831,346.672 343.498,373.672 342.5,400.5C 262.286,360.393 182.286,319.726 102.5,278.5C 101.333,250.173 101.167,221.839 102,193.5C 128.145,179.511 154.645,166.178 181.5,153.5 Z"/></g>
<g><path style="opacity:1" fill="#030100" d="M 261.5,194.5 C 288.939,207.553 316.272,221.219 343.5,235.5C 316.356,249.548 289.022,263.215 261.5,276.5C 234.992,263.08 208.658,249.413 182.5,235.5C 208.609,221.391 234.943,207.724 261.5,194.5 Z"/></g>
<g><path style="opacity:1" fill="#a55f34" d="M 300.5,296.5 C 302.967,296.755 304.967,297.755 306.5,299.5C 304.033,299.245 302.033,298.245 300.5,296.5 Z"/></g>
<g><path style="opacity:1" fill="#453006" d="M 343.5,319.5 C 344.829,346.67 344.829,374.003 343.5,401.5C 342.893,401.376 342.56,401.043 342.5,400.5C 343.498,373.672 343.831,346.672 343.5,319.5 Z"/></g>
</svg>
